<svg id="bc5b9d49-262c-4012-bdae-05f72fdbe16e" data-name="Layer 2" xmlns="http://www.w3.org/2000/svg" xmlns:xlink="http://www.w3.org/1999/xlink" width="1917" height="1077" viewBox="0 0 1917 1077">
  <defs>
    <linearGradient id="a45f3142-27bb-4a0c-83ea-d6f5082dd048" data-name="New Gradient Swatch 1" x1="960" y1="122.91" x2="960" y2="1298.96" gradientUnits="userSpaceOnUse">
      <stop offset="0" stop-color="#202326"/>
      <stop offset="1" stop-color="#df485c"/>
    </linearGradient>
    <linearGradient id="b4eab49f-bb2c-48a2-9a73-dc8ec3f6b739" x1="1803.74" y1="972.92" x2="564.73" y2="-266.09" xlink:href="#a45f3142-27bb-4a0c-83ea-d6f5082dd048"/>
    <linearGradient id="f8662e7c-6cbe-4740-8ccc-966288555d93" x1="973" y1="678.1" x2="973" y2="-1571" xlink:href="#a45f3142-27bb-4a0c-83ea-d6f5082dd048"/>
    <linearGradient id="fba4731b-8f2d-4778-9b1a-f7f769d26bf0" x1="335" y1="1000.92" x2="335" y2="-135.08" xlink:href="#a45f3142-27bb-4a0c-83ea-d6f5082dd048"/>
  </defs>
  <g>
    <path d="M1.5,1.5V286.19c144.55,26.94,322.38,47.83,521.24,60.4C660.15,355.28,807.57,360,961,360c162,0,317.31-5.26,461.19-14.9,188.7-12.64,357.71-32.81,496.31-58.54V1.5Z" transform="translate(-1.5 -1.5)" fill="url(#a45f3142-27bb-4a0c-83ea-d6f5082dd048)"/>
    <path d="M1774.25,584.92c-72.21-72.21-177.16-91.73-267.08-58.59a252.51,252.51,0,0,0-91.42,58.59c-99,99-99,259.51,0,358.51a256.55,256.55,0,0,0,22.41,19.91c99.49,78.55,244.25,71.92,336.09-19.91C1873.25,844.43,1873.25,683.92,1774.25,584.92Z" transform="translate(-1.5 -1.5)" fill="url(#b4eab49f-bb2c-48a2-9a73-dc8ec3f6b739)"/>
    <path d="M1507.17,526.33a549.68,549.68,0,0,0-85-181.23C1322.05,205.19,1158.18,114,973,114c-185.84,0-350.22,91.83-450.26,232.59A549.49,549.49,0,0,0,421,666q0,9,.3,17.92C504.43,717.94,563,799.62,563,895a227.07,227.07,0,0,1-27.18,108,554.92,554.92,0,0,0,70.37,75.46h733.62a552.88,552.88,0,0,0,167.36-552.17Z" transform="translate(-1.5 -1.5)" fill="url(#f8662e7c-6cbe-4740-8ccc-966288555d93)"/>
    <path d="M421.3,683.92A227.24,227.24,0,0,0,335,667c-125.92,0-228,102.08-228,228a227.66,227.66,0,0,0,92.67,183.5H470.33A227.71,227.71,0,0,0,563,895C563,799.62,504.43,717.94,421.3,683.92Z" transform="translate(-1.5 -1.5)" fill="url(#fba4731b-8f2d-4778-9b1a-f7f769d26bf0)"/>
  </g>
</svg>
