<svg xmlns="http://www.w3.org/2000/svg" viewBox="0 0 111.59 73.49"><defs><style>.cls-1{fill:#8c2778;}.cls-2{fill:#8d2778;}.cls-3{fill:#8e2778;}.cls-4{fill:#8f2777;}.cls-5{fill:#902777;}.cls-6{fill:#902677;}.cls-7{fill:#912677;}.cls-8{fill:#922677;}.cls-9{fill:#932676;}.cls-10{fill:#942676;}.cls-11{fill:#952676;}.cls-12{fill:#962676;}.cls-13{fill:#972575;}.cls-14{fill:#982575;}.cls-15{fill:#992575;}.cls-16{fill:#9a2575;}.cls-17{fill:#9a2574;}.cls-18{fill:#9b2574;}.cls-19{fill:#9c2474;}.cls-20{fill:#9d2474;}.cls-21{fill:#9e2473;}.cls-22{fill:#9f2473;}.cls-23{fill:#a02473;}.cls-24{fill:#a12373;}.cls-25{fill:#a12372;}.cls-26{fill:#a22372;}.cls-27{fill:#a32372;}.cls-28{fill:#a42372;}.cls-29{fill:#a42371;}.cls-30{fill:#a52271;}.cls-31{fill:#a62271;}.cls-32{fill:#a72271;}.cls-33{fill:#a82270;}.cls-34{fill:#a92270;}.cls-35{fill:#aa2170;}.cls-36{fill:#ab2170;}.cls-37{fill:#ac216f;}.cls-38{fill:#ad216f;}.cls-39{fill:#ad206f;}.cls-40{fill:#ae206f;}.cls-41{fill:#af206e;}.cls-42{fill:#b0206e;}.cls-43{fill:#b1206e;}.cls-44{fill:#b21f6d;}.cls-45{fill:#b31f6d;}.cls-46{fill:#b41f6d;}.cls-47{fill:#b51e6d;}.cls-48{fill:#b51e6c;}.cls-49{fill:#b61e6c;}.cls-50{fill:#b71e6c;}.cls-51{fill:#b81e6c;}.cls-52{fill:#b81d6b;}.cls-53{fill:#b91d6b;}.cls-54{fill:#ba1d6b;}.cls-55{fill:#bb1c6b;}.cls-56{fill:#bc1c6a;}.cls-57{fill:#bd1c6a;}.cls-58{fill:#be1c6a;}.cls-59{fill:#be1b69;}.cls-60{fill:#bf1b69;}.cls-61{fill:#c01b69;}.cls-62{fill:#c11a69;}.cls-63{fill:#c11a68;}.cls-64{fill:#c21a68;}.cls-65{fill:#c31a68;}.cls-66{fill:#c31968;}.cls-67{fill:#c41968;}.cls-68{fill:#c41967;}.cls-69{fill:#c51967;}.cls-70{fill:#c61867;}.cls-71{fill:#c71866;}.cls-72{fill:#c81766;}.cls-73{fill:#c91766;}.cls-74{fill:#ca1765;}.cls-75{fill:#ca1665;}.cls-76{fill:#cb1665;}.cls-77{fill:#cc1565;}.cls-78{fill:#cc1564;}.cls-79{fill:#cd1564;}.cls-80{fill:#ce1464;}.cls-81{fill:#cf1464;}.cls-82{fill:#cf1463;}.cls-83{fill:#d01363;}.cls-84{fill:#d11363;}.cls-85{fill:#d11263;}.cls-86{fill:#d21262;}.cls-87{fill:#d31162;}.cls-88{fill:#d41062;}.cls-89{fill:#d41061;}.cls-90{fill:#d51061;}.cls-91{fill:#d50f61;}.cls-92{fill:#d60f61;}.cls-93{fill:#d60e61;}.cls-94{fill:#d70e60;}.cls-95{fill:#d70d60;}.cls-96{fill:#d80d60;}.cls-97{fill:#d90c60;}.cls-98{fill:#d90b60;}.cls-99{fill:#da0b5f;}.cls-100{fill:#da0a5f;}.cls-101{fill:#db0a5f;}.cls-102{fill:#db095f;}.cls-103{fill:#dc085f;}.cls-104{fill:#dd075e;}.cls-105{fill:#dd065e;}.cls-106{fill:#de065e;}.cls-107{fill:#de055e;}.cls-108{fill:#df045e;}.cls-109{fill:#e0045d;}.cls-110{fill:#e0035d;}.cls-111{fill:#e1025d;}.cls-112{fill:#e1015d;}.cls-113{fill:#e2015d;}.cls-114{fill:#e2005c;}</style></defs><g id="Layer_2" data-name="Layer 2"><g id="Layer_3" data-name="Layer 3"><rect class="cls-1" x="7.76" y="8.17" width="103.05" height="11.83"/><rect class="cls-2" x="7.71" y="8.11" width="103.05" height="11.83"/><rect class="cls-2" x="7.66" y="8.06" width="103.05" height="11.83"/><rect class="cls-3" x="7.61" y="8" width="103.05" height="11.83"/><rect class="cls-3" x="7.56" y="7.95" width="103.05" height="11.83"/><rect class="cls-4" x="7.51" y="7.89" width="103.05" height="11.83"/><rect class="cls-5" x="7.45" y="7.84" width="103.05" height="11.83"/><rect class="cls-6" x="7.4" y="7.79" width="103.05" height="11.83"/><rect class="cls-7" x="7.35" y="7.73" width="103.05" height="11.83"/><rect class="cls-8" x="7.3" y="7.68" width="103.05" height="11.83"/><rect class="cls-8" x="7.25" y="7.62" width="103.05" height="11.83"/><rect class="cls-9" x="7.2" y="7.57" width="103.05" height="11.83"/><rect class="cls-10" x="7.15" y="7.52" width="103.05" height="11.83"/><rect class="cls-10" x="7.09" y="7.46" width="103.05" height="11.83"/><rect class="cls-11" x="7.04" y="7.41" width="103.05" height="11.83"/><rect class="cls-11" x="6.99" y="7.35" width="103.05" height="11.83"/><rect class="cls-12" x="6.94" y="7.3" width="103.05" height="11.83"/><rect class="cls-13" x="6.89" y="7.25" width="103.05" height="11.83"/><rect class="cls-13" x="6.84" y="7.19" width="103.05" height="11.83"/><rect class="cls-14" x="6.79" y="7.14" width="103.05" height="11.83"/><rect class="cls-14" x="6.73" y="7.08" width="103.05" height="11.83"/><rect class="cls-15" x="6.68" y="7.03" width="103.05" height="11.83"/><rect class="cls-16" x="6.63" y="6.98" width="103.05" height="11.83"/><rect class="cls-17" x="6.58" y="6.92" width="103.05" height="11.83"/><rect class="cls-18" x="6.53" y="6.87" width="103.05" height="11.83"/><rect class="cls-18" x="6.48" y="6.81" width="103.05" height="11.83"/><rect class="cls-19" x="6.43" y="6.76" width="103.05" height="11.83"/><rect class="cls-20" x="6.37" y="6.71" width="103.05" height="11.83"/><rect class="cls-20" x="6.32" y="6.65" width="103.05" height="11.83"/><rect class="cls-21" x="6.27" y="6.6" width="103.05" height="11.83"/><rect class="cls-21" x="6.22" y="6.54" width="103.05" height="11.83"/><rect class="cls-22" x="6.17" y="6.49" width="103.05" height="11.83"/><rect class="cls-23" x="6.12" y="6.43" width="103.05" height="11.83"/><rect class="cls-23" x="6.07" y="6.38" width="103.05" height="11.83"/><rect class="cls-24" x="6.01" y="6.33" width="103.05" height="11.83"/><rect class="cls-25" x="5.96" y="6.27" width="103.05" height="11.83"/><rect class="cls-26" x="5.91" y="6.22" width="103.05" height="11.83"/><rect class="cls-27" x="5.86" y="6.16" width="103.05" height="11.83"/><rect class="cls-27" x="5.81" y="6.11" width="103.05" height="11.83"/><rect class="cls-28" x="5.76" y="6.06" width="103.05" height="11.83"/><rect class="cls-29" x="5.71" y="6" width="103.05" height="11.83"/><rect class="cls-30" x="5.65" y="5.95" width="103.05" height="11.83"/><rect class="cls-31" x="5.6" y="5.89" width="103.05" height="11.83"/><rect class="cls-31" x="5.55" y="5.84" width="103.05" height="11.83"/><rect class="cls-32" x="5.5" y="5.79" width="103.05" height="11.83"/><rect class="cls-32" x="5.45" y="5.73" width="103.05" height="11.83"/><rect class="cls-33" x="5.4" y="5.68" width="103.05" height="11.83"/><rect class="cls-34" x="5.35" y="5.62" width="103.05" height="11.83"/><rect class="cls-34" x="5.29" y="5.57" width="103.05" height="11.83"/><rect class="cls-35" x="5.24" y="5.52" width="103.05" height="11.83"/><rect class="cls-35" x="5.19" y="5.46" width="103.05" height="11.83"/><rect class="cls-36" x="5.14" y="5.41" width="103.05" height="11.83"/><rect class="cls-37" x="5.09" y="5.35" width="103.05" height="11.83"/><rect class="cls-37" x="5.04" y="5.3" width="103.05" height="11.83"/><rect class="cls-38" x="4.99" y="5.25" width="103.05" height="11.83"/><rect class="cls-39" x="4.94" y="5.19" width="103.05" height="11.83"/><rect class="cls-40" x="4.88" y="5.14" width="103.05" height="11.83"/><rect class="cls-41" x="4.83" y="5.08" width="103.05" height="11.83"/><rect class="cls-41" x="4.78" y="5.03" width="103.05" height="11.83"/><rect class="cls-42" x="4.73" y="4.97" width="103.05" height="11.83"/><rect class="cls-42" x="4.68" y="4.92" width="103.05" height="11.83"/><rect class="cls-43" x="4.63" y="4.87" width="103.05" height="11.83"/><rect class="cls-44" x="4.58" y="4.81" width="103.05" height="11.83"/><rect class="cls-44" x="4.52" y="4.76" width="103.05" height="11.83"/><rect class="cls-45" x="4.47" y="4.7" width="103.05" height="11.83"/><rect class="cls-45" x="4.42" y="4.65" width="103.05" height="11.83"/><rect class="cls-46" x="4.37" y="4.6" width="103.05" height="11.83"/><rect class="cls-47" x="4.32" y="4.54" width="103.05" height="11.83"/><rect class="cls-48" x="4.27" y="4.49" width="103.05" height="11.83"/><rect class="cls-49" x="4.22" y="4.43" width="103.05" height="11.83"/><rect class="cls-49" x="4.16" y="4.38" width="103.05" height="11.83"/><rect class="cls-50" x="4.11" y="4.33" width="103.05" height="11.83"/><rect class="cls-51" x="4.06" y="4.27" width="103.05" height="11.83"/><rect class="cls-52" x="4.01" y="4.22" width="103.05" height="11.83"/><rect class="cls-53" x="3.96" y="4.16" width="103.05" height="11.83"/><rect class="cls-53" x="3.91" y="4.11" width="103.05" height="11.83"/><rect class="cls-54" x="3.86" y="4.06" width="103.05" height="11.83"/><rect class="cls-54" x="3.8" y="4" width="103.05" height="11.83"/><rect class="cls-55" x="3.75" y="3.95" width="103.05" height="11.83"/><rect class="cls-56" x="3.7" y="3.89" width="103.05" height="11.83"/><rect class="cls-56" x="3.65" y="3.84" width="103.05" height="11.83"/><rect class="cls-57" x="3.6" y="3.79" width="103.05" height="11.83"/><rect class="cls-57" x="3.55" y="3.73" width="103.05" height="11.83"/><rect class="cls-58" x="3.5" y="3.68" width="103.05" height="11.83"/><rect class="cls-59" x="3.44" y="3.62" width="103.05" height="11.83"/><rect class="cls-60" x="3.39" y="3.57" width="103.05" height="11.83"/><rect class="cls-60" x="3.34" y="3.51" width="103.05" height="11.83"/><rect class="cls-61" x="3.29" y="3.46" width="103.05" height="11.83"/><rect class="cls-62" x="3.24" y="3.41" width="103.05" height="11.83"/><rect class="cls-63" x="3.19" y="3.35" width="103.05" height="11.83"/><rect class="cls-64" x="3.14" y="3.3" width="103.05" height="11.83"/><rect class="cls-64" x="3.08" y="3.24" width="103.05" height="11.83"/><rect class="cls-65" x="3.03" y="3.19" width="103.05" height="11.83"/><rect class="cls-66" x="2.98" y="3.14" width="103.05" height="11.83"/><rect class="cls-67" x="2.93" y="3.08" width="103.05" height="11.83"/><rect class="cls-68" x="2.88" y="3.03" width="103.05" height="11.83"/><rect class="cls-69" x="2.83" y="2.97" width="103.05" height="11.83"/><rect class="cls-69" x="2.78" y="2.92" width="103.05" height="11.83"/><rect class="cls-70" x="2.72" y="2.87" width="103.05" height="11.83"/><rect class="cls-70" x="2.67" y="2.81" width="103.05" height="11.83"/><rect class="cls-71" x="2.62" y="2.76" width="103.05" height="11.83"/><rect class="cls-71" x="2.57" y="2.7" width="103.05" height="11.83"/><rect class="cls-72" x="2.52" y="2.65" width="103.05" height="11.83"/><rect class="cls-73" x="2.47" y="2.6" width="103.05" height="11.83"/><rect class="cls-73" x="2.42" y="2.54" width="103.05" height="11.83"/><rect class="cls-74" x="2.36" y="2.49" width="103.05" height="11.83"/><rect class="cls-75" x="2.31" y="2.43" width="103.05" height="11.83"/><rect class="cls-76" x="2.26" y="2.38" width="103.05" height="11.83"/><rect class="cls-76" x="2.21" y="2.33" width="103.05" height="11.83"/><rect class="cls-77" x="2.16" y="2.27" width="103.05" height="11.83"/><rect class="cls-78" x="2.11" y="2.22" width="103.05" height="11.83"/><rect class="cls-79" x="2.06" y="2.16" width="103.05" height="11.83"/><rect class="cls-79" x="2" y="2.11" width="103.05" height="11.83"/><rect class="cls-80" x="1.95" y="2.05" width="103.05" height="11.83"/><rect class="cls-81" x="1.9" y="2" width="103.05" height="11.83"/><rect class="cls-82" x="1.85" y="1.95" width="103.05" height="11.83"/><rect class="cls-83" x="1.8" y="1.89" width="103.05" height="11.83"/><rect class="cls-83" x="1.75" y="1.84" width="103.05" height="11.83"/><rect class="cls-84" x="1.7" y="1.78" width="103.05" height="11.83"/><rect class="cls-85" x="1.65" y="1.73" width="103.05" height="11.83"/><rect class="cls-86" x="1.59" y="1.68" width="103.05" height="11.83"/><rect class="cls-86" x="1.54" y="1.62" width="103.05" height="11.83"/><rect class="cls-87" x="1.49" y="1.57" width="103.05" height="11.83"/><rect class="cls-87" x="1.44" y="1.51" width="103.05" height="11.83"/><rect class="cls-88" x="1.39" y="1.46" width="103.05" height="11.83"/><rect class="cls-89" x="1.34" y="1.41" width="103.05" height="11.83"/><rect class="cls-90" x="1.29" y="1.35" width="103.05" height="11.83"/><rect class="cls-91" x="1.23" y="1.3" width="103.05" height="11.83"/><rect class="cls-92" x="1.18" y="1.24" width="103.05" height="11.83"/><rect class="cls-93" x="1.13" y="1.19" width="103.05" height="11.83"/><rect class="cls-94" x="1.08" y="1.14" width="103.05" height="11.83"/><rect class="cls-95" x="1.03" y="1.08" width="103.05" height="11.83"/><rect class="cls-96" x="0.98" y="1.03" width="103.05" height="11.83"/><rect class="cls-97" x="0.93" y="0.97" width="103.05" height="11.83"/><rect class="cls-98" x="0.87" y="0.92" width="103.05" height="11.83"/><rect class="cls-99" x="0.82" y="0.87" width="103.05" height="11.83"/><rect class="cls-100" x="0.77" y="0.81" width="103.05" height="11.83"/><rect class="cls-101" x="0.72" y="0.76" width="103.05" height="11.83"/><rect class="cls-102" x="0.67" y="0.7" width="103.05" height="11.83"/><rect class="cls-103" x="0.62" y="0.65" width="103.05" height="11.83"/><rect class="cls-103" x="0.57" y="0.59" width="103.05" height="11.83"/><rect class="cls-104" x="0.51" y="0.54" width="103.05" height="11.83"/><rect class="cls-105" x="0.46" y="0.49" width="103.05" height="11.83"/><rect class="cls-106" x="0.41" y="0.43" width="103.05" height="11.83"/><rect class="cls-107" x="0.36" y="0.38" width="103.05" height="11.83"/><rect class="cls-108" x="0.31" y="0.32" width="103.05" height="11.83"/><rect class="cls-109" x="0.26" y="0.27" width="103.05" height="11.83"/><rect class="cls-110" x="0.21" y="0.22" width="103.05" height="11.83"/><rect class="cls-111" x="0.15" y="0.16" width="103.05" height="11.83"/><rect class="cls-112" x="0.1" y="0.11" width="103.05" height="11.83"/><rect class="cls-113" x="0.05" y="0.05" width="103.05" height="11.83"/><rect class="cls-114" width="103.05" height="11.83"/><rect class="cls-1" x="7.76" y="34.91" width="103.05" height="11.83"/><rect class="cls-2" x="7.71" y="34.86" width="103.05" height="11.83"/><rect class="cls-2" x="7.66" y="34.81" width="103.05" height="11.83"/><rect class="cls-3" x="7.61" y="34.75" width="103.05" height="11.83"/><rect class="cls-3" x="7.56" y="34.7" width="103.05" height="11.83"/><rect class="cls-4" x="7.51" y="34.64" width="103.05" height="11.83"/><rect class="cls-5" x="7.45" y="34.59" width="103.05" height="11.83"/><rect class="cls-6" x="7.4" y="34.53" width="103.05" height="11.83"/><rect class="cls-7" x="7.35" y="34.48" width="103.05" height="11.83"/><rect class="cls-8" x="7.3" y="34.43" width="103.05" height="11.83"/><rect class="cls-8" x="7.25" y="34.37" width="103.05" height="11.83"/><rect class="cls-9" x="7.2" y="34.32" width="103.05" height="11.83"/><rect class="cls-10" x="7.15" y="34.26" width="103.05" height="11.83"/><rect class="cls-10" x="7.09" y="34.21" width="103.05" height="11.83"/><rect class="cls-11" x="7.04" y="34.16" width="103.05" height="11.83"/><rect class="cls-11" x="6.99" y="34.1" width="103.05" height="11.83"/><rect class="cls-12" x="6.94" y="34.05" width="103.05" height="11.83"/><rect class="cls-13" x="6.89" y="33.99" width="103.05" height="11.83"/><rect class="cls-13" x="6.84" y="33.94" width="103.05" height="11.83"/><rect class="cls-14" x="6.79" y="33.89" width="103.05" height="11.83"/><rect class="cls-14" x="6.73" y="33.83" width="103.05" height="11.83"/><rect class="cls-15" x="6.68" y="33.78" width="103.05" height="11.83"/><rect class="cls-16" x="6.63" y="33.72" width="103.05" height="11.83"/><rect class="cls-17" x="6.58" y="33.67" width="103.05" height="11.83"/><rect class="cls-18" x="6.53" y="33.62" width="103.05" height="11.83"/><rect class="cls-18" x="6.48" y="33.56" width="103.05" height="11.83"/><rect class="cls-19" x="6.43" y="33.51" width="103.05" height="11.83"/><rect class="cls-20" x="6.37" y="33.45" width="103.05" height="11.83"/><rect class="cls-20" x="6.32" y="33.4" width="103.05" height="11.83"/><rect class="cls-21" x="6.27" y="33.35" width="103.05" height="11.83"/><rect class="cls-21" x="6.22" y="33.29" width="103.05" height="11.83"/><rect class="cls-22" x="6.17" y="33.24" width="103.05" height="11.83"/><rect class="cls-23" x="6.12" y="33.18" width="103.05" height="11.83"/><rect class="cls-23" x="6.07" y="33.13" width="103.05" height="11.83"/><rect class="cls-24" x="6.01" y="33.07" width="103.05" height="11.83"/><rect class="cls-25" x="5.96" y="33.02" width="103.05" height="11.83"/><rect class="cls-26" x="5.91" y="32.97" width="103.05" height="11.83"/><rect class="cls-27" x="5.86" y="32.91" width="103.05" height="11.83"/><rect class="cls-27" x="5.81" y="32.86" width="103.05" height="11.83"/><rect class="cls-28" x="5.76" y="32.8" width="103.05" height="11.83"/><rect class="cls-29" x="5.71" y="32.75" width="103.05" height="11.83"/><rect class="cls-30" x="5.65" y="32.7" width="103.05" height="11.83"/><rect class="cls-31" x="5.6" y="32.64" width="103.05" height="11.83"/><rect class="cls-31" x="5.55" y="32.59" width="103.05" height="11.83"/><rect class="cls-32" x="5.5" y="32.53" width="103.05" height="11.83"/><rect class="cls-32" x="5.45" y="32.48" width="103.05" height="11.83"/><rect class="cls-33" x="5.4" y="32.43" width="103.05" height="11.83"/><rect class="cls-34" x="5.35" y="32.37" width="103.05" height="11.83"/><rect class="cls-34" x="5.29" y="32.32" width="103.05" height="11.83"/><rect class="cls-35" x="5.24" y="32.26" width="103.05" height="11.83"/><rect class="cls-35" x="5.19" y="32.21" width="103.05" height="11.83"/><rect class="cls-36" x="5.14" y="32.16" width="103.05" height="11.83"/><rect class="cls-37" x="5.09" y="32.1" width="103.05" height="11.83"/><rect class="cls-37" x="5.04" y="32.05" width="103.05" height="11.83"/><rect class="cls-38" x="4.99" y="31.99" width="103.05" height="11.83"/><rect class="cls-39" x="4.94" y="31.94" width="103.05" height="11.83"/><rect class="cls-40" x="4.88" y="31.89" width="103.05" height="11.83"/><rect class="cls-41" x="4.83" y="31.83" width="103.05" height="11.83"/><rect class="cls-41" x="4.78" y="31.78" width="103.05" height="11.83"/><rect class="cls-42" x="4.73" y="31.72" width="103.05" height="11.83"/><rect class="cls-42" x="4.68" y="31.67" width="103.05" height="11.83"/><rect class="cls-43" x="4.63" y="31.61" width="103.05" height="11.83"/><rect class="cls-44" x="4.58" y="31.56" width="103.05" height="11.83"/><rect class="cls-44" x="4.52" y="31.51" width="103.05" height="11.83"/><rect class="cls-45" x="4.47" y="31.45" width="103.05" height="11.83"/><rect class="cls-45" x="4.42" y="31.4" width="103.05" height="11.83"/><rect class="cls-46" x="4.37" y="31.34" width="103.05" height="11.83"/><rect class="cls-47" x="4.32" y="31.29" width="103.05" height="11.83"/><rect class="cls-48" x="4.27" y="31.24" width="103.05" height="11.83"/><rect class="cls-49" x="4.22" y="31.18" width="103.05" height="11.83"/><rect class="cls-49" x="4.16" y="31.13" width="103.05" height="11.83"/><rect class="cls-50" x="4.11" y="31.07" width="103.05" height="11.83"/><rect class="cls-51" x="4.06" y="31.02" width="103.05" height="11.83"/><rect class="cls-52" x="4.01" y="30.97" width="103.05" height="11.83"/><rect class="cls-53" x="3.96" y="30.91" width="103.05" height="11.83"/><rect class="cls-53" x="3.91" y="30.86" width="103.05" height="11.83"/><rect class="cls-54" x="3.86" y="30.8" width="103.05" height="11.83"/><rect class="cls-54" x="3.8" y="30.75" width="103.05" height="11.83"/><rect class="cls-55" x="3.75" y="30.7" width="103.05" height="11.83"/><rect class="cls-56" x="3.7" y="30.64" width="103.05" height="11.83"/><rect class="cls-56" x="3.65" y="30.59" width="103.05" height="11.83"/><rect class="cls-57" x="3.6" y="30.53" width="103.05" height="11.83"/><rect class="cls-57" x="3.55" y="30.48" width="103.05" height="11.83"/><rect class="cls-58" x="3.5" y="30.43" width="103.05" height="11.83"/><rect class="cls-59" x="3.44" y="30.37" width="103.05" height="11.83"/><rect class="cls-60" x="3.39" y="30.32" width="103.05" height="11.83"/><rect class="cls-60" x="3.34" y="30.26" width="103.05" height="11.83"/><rect class="cls-61" x="3.29" y="30.21" width="103.05" height="11.83"/><rect class="cls-62" x="3.24" y="30.15" width="103.05" height="11.83"/><rect class="cls-63" x="3.19" y="30.1" width="103.05" height="11.83"/><rect class="cls-64" x="3.14" y="30.05" width="103.05" height="11.83"/><rect class="cls-64" x="3.08" y="29.99" width="103.05" height="11.83"/><rect class="cls-65" x="3.03" y="29.94" width="103.05" height="11.83"/><rect class="cls-66" x="2.98" y="29.88" width="103.05" height="11.83"/><rect class="cls-67" x="2.93" y="29.83" width="103.05" height="11.83"/><rect class="cls-68" x="2.88" y="29.78" width="103.05" height="11.83"/><rect class="cls-69" x="2.83" y="29.72" width="103.05" height="11.83"/><rect class="cls-69" x="2.78" y="29.67" width="103.05" height="11.83"/><rect class="cls-70" x="2.72" y="29.61" width="103.05" height="11.83"/><rect class="cls-70" x="2.67" y="29.56" width="103.05" height="11.83"/><rect class="cls-71" x="2.62" y="29.51" width="103.05" height="11.83"/><rect class="cls-71" x="2.57" y="29.45" width="103.05" height="11.83"/><rect class="cls-72" x="2.52" y="29.4" width="103.05" height="11.83"/><rect class="cls-73" x="2.47" y="29.34" width="103.05" height="11.83"/><rect class="cls-73" x="2.42" y="29.29" width="103.05" height="11.83"/><rect class="cls-74" x="2.36" y="29.24" width="103.05" height="11.83"/><rect class="cls-75" x="2.31" y="29.18" width="103.05" height="11.83"/><rect class="cls-76" x="2.26" y="29.13" width="103.05" height="11.83"/><rect class="cls-76" x="2.21" y="29.07" width="103.05" height="11.83"/><rect class="cls-77" x="2.16" y="29.02" width="103.05" height="11.83"/><rect class="cls-78" x="2.11" y="28.97" width="103.05" height="11.83"/><rect class="cls-79" x="2.06" y="28.91" width="103.05" height="11.83"/><rect class="cls-79" x="2" y="28.86" width="103.05" height="11.83"/><rect class="cls-80" x="1.95" y="28.8" width="103.05" height="11.83"/><rect class="cls-81" x="1.9" y="28.75" width="103.05" height="11.83"/><rect class="cls-82" x="1.85" y="28.69" width="103.05" height="11.83"/><rect class="cls-83" x="1.8" y="28.64" width="103.05" height="11.83"/><rect class="cls-83" x="1.75" y="28.59" width="103.05" height="11.83"/><rect class="cls-84" x="1.7" y="28.53" width="103.05" height="11.83"/><rect class="cls-85" x="1.65" y="28.48" width="103.05" height="11.83"/><rect class="cls-86" x="1.59" y="28.42" width="103.05" height="11.83"/><rect class="cls-86" x="1.54" y="28.37" width="103.05" height="11.83"/><rect class="cls-87" x="1.49" y="28.32" width="103.05" height="11.83"/><rect class="cls-87" x="1.44" y="28.26" width="103.05" height="11.83"/><rect class="cls-88" x="1.39" y="28.21" width="103.05" height="11.83"/><rect class="cls-89" x="1.34" y="28.15" width="103.05" height="11.83"/><rect class="cls-90" x="1.29" y="28.1" width="103.05" height="11.83"/><rect class="cls-91" x="1.23" y="28.05" width="103.05" height="11.83"/><rect class="cls-92" x="1.18" y="27.99" width="103.05" height="11.83"/><rect class="cls-93" x="1.13" y="27.94" width="103.05" height="11.83"/><rect class="cls-94" x="1.08" y="27.88" width="103.05" height="11.83"/><rect class="cls-95" x="1.03" y="27.83" width="103.05" height="11.83"/><rect class="cls-96" x="0.98" y="27.78" width="103.05" height="11.83"/><rect class="cls-97" x="0.93" y="27.72" width="103.05" height="11.83"/><rect class="cls-98" x="0.87" y="27.67" width="103.05" height="11.83"/><rect class="cls-99" x="0.82" y="27.61" width="103.05" height="11.83"/><rect class="cls-100" x="0.77" y="27.56" width="103.05" height="11.83"/><rect class="cls-101" x="0.72" y="27.51" width="103.05" height="11.83"/><rect class="cls-102" x="0.67" y="27.45" width="103.05" height="11.83"/><rect class="cls-103" x="0.62" y="27.4" width="103.05" height="11.83"/><rect class="cls-103" x="0.57" y="27.34" width="103.05" height="11.83"/><rect class="cls-104" x="0.51" y="27.29" width="103.05" height="11.83"/><rect class="cls-105" x="0.46" y="27.23" width="103.05" height="11.83"/><rect class="cls-106" x="0.41" y="27.18" width="103.05" height="11.83"/><rect class="cls-107" x="0.36" y="27.13" width="103.05" height="11.83"/><rect class="cls-108" x="0.31" y="27.07" width="103.05" height="11.83"/><rect class="cls-109" x="0.26" y="27.02" width="103.05" height="11.83"/><rect class="cls-110" x="0.21" y="26.96" width="103.05" height="11.83"/><rect class="cls-111" x="0.15" y="26.91" width="103.05" height="11.83"/><rect class="cls-112" x="0.1" y="26.86" width="103.05" height="11.83"/><rect class="cls-113" x="0.05" y="26.8" width="103.05" height="11.83"/><rect class="cls-114" y="26.75" width="103.05" height="11.83"/><rect class="cls-1" x="8.54" y="61.66" width="103.05" height="11.83"/><rect class="cls-2" x="8.49" y="61.61" width="103.05" height="11.83"/><rect class="cls-2" x="8.44" y="61.55" width="103.05" height="11.83"/><rect class="cls-3" x="8.39" y="61.5" width="103.05" height="11.83"/><rect class="cls-3" x="8.34" y="61.45" width="103.05" height="11.83"/><rect class="cls-4" x="8.28" y="61.39" width="103.05" height="11.83"/><rect class="cls-5" x="8.23" y="61.34" width="103.05" height="11.83"/><rect class="cls-6" x="8.18" y="61.28" width="103.05" height="11.83"/><rect class="cls-7" x="8.13" y="61.23" width="103.05" height="11.83"/><rect class="cls-8" x="8.08" y="61.17" width="103.05" height="11.83"/><rect class="cls-8" x="8.03" y="61.12" width="103.05" height="11.83"/><rect class="cls-9" x="7.98" y="61.07" width="103.05" height="11.83"/><rect class="cls-10" x="7.92" y="61.01" width="103.05" height="11.83"/><rect class="cls-10" x="7.87" y="60.96" width="103.05" height="11.83"/><rect class="cls-11" x="7.82" y="60.9" width="103.05" height="11.83"/><rect class="cls-11" x="7.77" y="60.85" width="103.05" height="11.83"/><rect class="cls-12" x="7.72" y="60.8" width="103.05" height="11.83"/><rect class="cls-13" x="7.67" y="60.74" width="103.05" height="11.83"/><rect class="cls-13" x="7.62" y="60.69" width="103.05" height="11.83"/><rect class="cls-14" x="7.56" y="60.63" width="103.05" height="11.83"/><rect class="cls-14" x="7.51" y="60.58" width="103.05" height="11.83"/><rect class="cls-15" x="7.46" y="60.53" width="103.05" height="11.83"/><rect class="cls-16" x="7.41" y="60.47" width="103.05" height="11.83"/><rect class="cls-17" x="7.36" y="60.42" width="103.05" height="11.83"/><rect class="cls-18" x="7.31" y="60.36" width="103.05" height="11.83"/><rect class="cls-18" x="7.26" y="60.31" width="103.05" height="11.83"/><rect class="cls-19" x="7.2" y="60.26" width="103.05" height="11.83"/><rect class="cls-20" x="7.15" y="60.2" width="103.05" height="11.83"/><rect class="cls-20" x="7.1" y="60.15" width="103.05" height="11.83"/><rect class="cls-21" x="7.05" y="60.09" width="103.05" height="11.83"/><rect class="cls-21" x="7" y="60.04" width="103.05" height="11.83"/><rect class="cls-22" x="6.95" y="59.99" width="103.05" height="11.83"/><rect class="cls-23" x="6.9" y="59.93" width="103.05" height="11.83"/><rect class="cls-23" x="6.84" y="59.88" width="103.05" height="11.83"/><rect class="cls-24" x="6.79" y="59.82" width="103.05" height="11.83"/><rect class="cls-25" x="6.74" y="59.77" width="103.05" height="11.83"/><rect class="cls-26" x="6.69" y="59.71" width="103.05" height="11.83"/><rect class="cls-27" x="6.64" y="59.66" width="103.05" height="11.83"/><rect class="cls-27" x="6.59" y="59.61" width="103.05" height="11.83"/><rect class="cls-28" x="6.54" y="59.55" width="103.05" height="11.83"/><rect class="cls-29" x="6.48" y="59.5" width="103.05" height="11.83"/><rect class="cls-30" x="6.43" y="59.44" width="103.05" height="11.83"/><rect class="cls-31" x="6.38" y="59.39" width="103.05" height="11.83"/><rect class="cls-31" x="6.33" y="59.34" width="103.05" height="11.83"/><rect class="cls-32" x="6.28" y="59.28" width="103.05" height="11.83"/><rect class="cls-32" x="6.23" y="59.23" width="103.05" height="11.83"/><rect class="cls-33" x="6.18" y="59.17" width="103.05" height="11.83"/><rect class="cls-34" x="6.12" y="59.12" width="103.05" height="11.83"/><rect class="cls-34" x="6.07" y="59.07" width="103.05" height="11.83"/><rect class="cls-35" x="6.02" y="59.01" width="103.05" height="11.83"/><rect class="cls-35" x="5.97" y="58.96" width="103.05" height="11.83"/><rect class="cls-36" x="5.92" y="58.9" width="103.05" height="11.83"/><rect class="cls-37" x="5.87" y="58.85" width="103.05" height="11.83"/><rect class="cls-37" x="5.82" y="58.8" width="103.05" height="11.83"/><rect class="cls-38" x="5.76" y="58.74" width="103.05" height="11.83"/><rect class="cls-39" x="5.71" y="58.69" width="103.05" height="11.83"/><rect class="cls-40" x="5.66" y="58.63" width="103.05" height="11.83"/><rect class="cls-41" x="5.61" y="58.58" width="103.05" height="11.83"/><rect class="cls-41" x="5.56" y="58.53" width="103.05" height="11.83"/><rect class="cls-42" x="5.51" y="58.47" width="103.05" height="11.83"/><rect class="cls-42" x="5.46" y="58.42" width="103.05" height="11.83"/><rect class="cls-43" x="5.4" y="58.36" width="103.05" height="11.83"/><rect class="cls-44" x="5.35" y="58.31" width="103.05" height="11.83"/><rect class="cls-44" x="5.3" y="58.25" width="103.05" height="11.83"/><rect class="cls-45" x="5.25" y="58.2" width="103.05" height="11.83"/><rect class="cls-45" x="5.2" y="58.15" width="103.05" height="11.83"/><rect class="cls-46" x="5.15" y="58.09" width="103.05" height="11.83"/><rect class="cls-47" x="5.1" y="58.04" width="103.05" height="11.83"/><rect class="cls-48" x="5.04" y="57.98" width="103.05" height="11.83"/><rect class="cls-49" x="4.99" y="57.93" width="103.05" height="11.83"/><rect class="cls-49" x="4.94" y="57.88" width="103.05" height="11.83"/><rect class="cls-50" x="4.89" y="57.82" width="103.05" height="11.83"/><rect class="cls-51" x="4.84" y="57.77" width="103.05" height="11.83"/><rect class="cls-52" x="4.79" y="57.71" width="103.05" height="11.83"/><rect class="cls-53" x="4.74" y="57.66" width="103.05" height="11.83"/><rect class="cls-53" x="4.69" y="57.61" width="103.05" height="11.83"/><rect class="cls-54" x="4.63" y="57.55" width="103.05" height="11.83"/><rect class="cls-54" x="4.58" y="57.5" width="103.05" height="11.83"/><rect class="cls-55" x="4.53" y="57.44" width="103.05" height="11.83"/><rect class="cls-56" x="4.48" y="57.39" width="103.05" height="11.83"/><rect class="cls-56" x="4.43" y="57.34" width="103.05" height="11.83"/><rect class="cls-57" x="4.38" y="57.28" width="103.05" height="11.83"/><rect class="cls-57" x="4.33" y="57.23" width="103.05" height="11.83"/><rect class="cls-58" x="4.27" y="57.17" width="103.05" height="11.83"/><rect class="cls-59" x="4.22" y="57.12" width="103.05" height="11.83"/><rect class="cls-60" x="4.17" y="57.07" width="103.05" height="11.83"/><rect class="cls-60" x="4.12" y="57.01" width="103.05" height="11.83"/><rect class="cls-61" x="4.07" y="56.96" width="103.05" height="11.83"/><rect class="cls-62" x="4.02" y="56.9" width="103.05" height="11.83"/><rect class="cls-63" x="3.97" y="56.85" width="103.05" height="11.83"/><rect class="cls-64" x="3.91" y="56.79" width="103.05" height="11.83"/><rect class="cls-64" x="3.86" y="56.74" width="103.05" height="11.83"/><rect class="cls-65" x="3.81" y="56.69" width="103.05" height="11.83"/><rect class="cls-66" x="3.76" y="56.63" width="103.05" height="11.83"/><rect class="cls-67" x="3.71" y="56.58" width="103.05" height="11.83"/><rect class="cls-68" x="3.66" y="56.52" width="103.05" height="11.83"/><rect class="cls-69" x="3.61" y="56.47" width="103.05" height="11.83"/><rect class="cls-69" x="3.55" y="56.42" width="103.05" height="11.83"/><rect class="cls-70" x="3.5" y="56.36" width="103.05" height="11.83"/><rect class="cls-70" x="3.45" y="56.31" width="103.05" height="11.83"/><rect class="cls-71" x="3.4" y="56.25" width="103.05" height="11.83"/><rect class="cls-71" x="3.35" y="56.2" width="103.05" height="11.83"/><rect class="cls-72" x="3.3" y="56.15" width="103.05" height="11.83"/><rect class="cls-73" x="3.25" y="56.09" width="103.05" height="11.83"/><rect class="cls-73" x="3.19" y="56.04" width="103.05" height="11.83"/><rect class="cls-74" x="3.14" y="55.98" width="103.05" height="11.83"/><rect class="cls-75" x="3.09" y="55.93" width="103.05" height="11.83"/><rect class="cls-76" x="3.04" y="55.88" width="103.05" height="11.83"/><rect class="cls-76" x="2.99" y="55.82" width="103.05" height="11.83"/><rect class="cls-77" x="2.94" y="55.77" width="103.05" height="11.83"/><rect class="cls-78" x="2.89" y="55.71" width="103.05" height="11.83"/><rect class="cls-79" x="2.83" y="55.66" width="103.05" height="11.83"/><rect class="cls-79" x="2.78" y="55.61" width="103.05" height="11.83"/><rect class="cls-80" x="2.73" y="55.55" width="103.05" height="11.83"/><rect class="cls-81" x="2.68" y="55.5" width="103.05" height="11.83"/><rect class="cls-82" x="2.63" y="55.44" width="103.05" height="11.83"/><rect class="cls-83" x="2.58" y="55.39" width="103.05" height="11.83"/><rect class="cls-83" x="2.53" y="55.33" width="103.05" height="11.83"/><rect class="cls-84" x="2.47" y="55.28" width="103.05" height="11.83"/><rect class="cls-85" x="2.42" y="55.23" width="103.05" height="11.83"/><rect class="cls-86" x="2.37" y="55.17" width="103.05" height="11.83"/><rect class="cls-86" x="2.32" y="55.12" width="103.05" height="11.83"/><rect class="cls-87" x="2.27" y="55.06" width="103.05" height="11.83"/><rect class="cls-87" x="2.22" y="55.01" width="103.05" height="11.83"/><rect class="cls-88" x="2.17" y="54.96" width="103.05" height="11.83"/><rect class="cls-89" x="2.11" y="54.9" width="103.05" height="11.83"/><rect class="cls-90" x="2.06" y="54.85" width="103.05" height="11.83"/><rect class="cls-91" x="2.01" y="54.79" width="103.05" height="11.83"/><rect class="cls-92" x="1.96" y="54.74" width="103.05" height="11.83"/><rect class="cls-93" x="1.91" y="54.69" width="103.05" height="11.83"/><rect class="cls-94" x="1.86" y="54.63" width="103.05" height="11.83"/><rect class="cls-95" x="1.81" y="54.58" width="103.05" height="11.83"/><rect class="cls-96" x="1.75" y="54.52" width="103.05" height="11.83"/><rect class="cls-97" x="1.7" y="54.47" width="103.05" height="11.83"/><rect class="cls-98" x="1.65" y="54.42" width="103.05" height="11.83"/><rect class="cls-99" x="1.6" y="54.36" width="103.05" height="11.83"/><rect class="cls-100" x="1.55" y="54.31" width="103.05" height="11.83"/><rect class="cls-101" x="1.5" y="54.25" width="103.05" height="11.83"/><rect class="cls-102" x="1.45" y="54.2" width="103.05" height="11.83"/><rect class="cls-103" x="1.4" y="54.15" width="103.05" height="11.83"/><rect class="cls-103" x="1.34" y="54.09" width="103.05" height="11.83"/><rect class="cls-104" x="1.29" y="54.04" width="103.05" height="11.83"/><rect class="cls-105" x="1.24" y="53.98" width="103.05" height="11.83"/><rect class="cls-106" x="1.19" y="53.93" width="103.05" height="11.83"/><rect class="cls-107" x="1.14" y="53.87" width="103.05" height="11.83"/><rect class="cls-108" x="1.09" y="53.82" width="103.05" height="11.83"/><rect class="cls-109" x="1.04" y="53.77" width="103.05" height="11.83"/><rect class="cls-110" x="0.98" y="53.71" width="103.05" height="11.83"/><rect class="cls-111" x="0.93" y="53.66" width="103.05" height="11.83"/><rect class="cls-112" x="0.88" y="53.6" width="103.05" height="11.83"/><rect class="cls-113" x="0.83" y="53.55" width="103.05" height="11.83"/><rect class="cls-114" x="0.78" y="53.5" width="103.05" height="11.83"/></g></g></svg>